<svg version="1.1" xmlns="http://www.w3.org/2000/svg" viewBox="0 0 411.625 152.66665649414062" width="411.625" height="152.66665649414062">
  <!-- svg-source:excalidraw -->
  
  <defs>
    <style class="style-fonts">
      @font-face {
        font-family: "Virgil";
        src: url("https://excalidraw.com/Virgil.woff2");
      }
      @font-face {
        font-family: "Cascadia";
        src: url("https://excalidraw.com/Cascadia.woff2");
      }
      @font-face {
        font-family: "Assistant";
        src: url("https://excalidraw.com/Assistant-Regular.woff2");
      }
    </style>
    
  </defs>
  <g transform="translate(14 10) rotate(0 41.015625 12)"><text x="0" y="0" font-family="Cascadia, Segoe UI Emoji" font-size="20px" fill="#1e1e1e" text-anchor="start" style="white-space: pre;" direction="ltr" dominant-baseline="text-before-edge">Ferry A</text></g><g transform="translate(10 118.66665649414062) rotate(0 41.015625 12)"><text x="0" y="0" font-family="Cascadia, Segoe UI Emoji" font-size="20px" fill="#1e1e1e" text-anchor="start" style="white-space: pre;" direction="ltr" dominant-baseline="text-before-edge">Ferry B</text></g><g transform="translate(261 59.33331298828125) rotate(0 70.3125 12)"><text x="0" y="0" font-family="Cascadia, Segoe UI Emoji" font-size="20px" fill="#1e1e1e" text-anchor="start" style="white-space: pre;" direction="ltr" dominant-baseline="text-before-edge">Blauwe wagen</text></g><g stroke-linecap="round"><g transform="translate(103.33334350585938 20.07458027799612) rotate(0 73.66667175292969 26.462214479814747)"><path d="M0 0 C24.56 8.82, 122.78 44.1, 147.33 52.92 M0 0 C24.56 8.82, 122.78 44.1, 147.33 52.92" stroke="#1e1e1e" stroke-width="1" fill="none"></path></g><g transform="translate(103.33334350585938 20.07458027799612) rotate(0 73.66667175292969 26.462214479814747)"><path d="M117.33 53.05 C128.14 53.01, 138.94 52.96, 147.33 52.92 M117.33 53.05 C127.12 53.01, 136.91 52.97, 147.33 52.92" stroke="#1e1e1e" stroke-width="1" fill="none"></path></g><g transform="translate(103.33334350585938 20.07458027799612) rotate(0 73.66667175292969 26.462214479814747)"><path d="M124.27 33.74 C132.58 40.65, 140.88 47.56, 147.33 52.92 M124.27 33.74 C131.8 40, 139.32 46.26, 147.33 52.92" stroke="#1e1e1e" stroke-width="1" fill="none"></path></g></g><mask></mask><g stroke-linecap="round"><g transform="translate(104 140.56864111951518) rotate(0 73.02586196711036 -28.084923230998584)"><path d="M0 0 C24.34 -9.36, 121.71 -46.81, 146.05 -56.17 M0 0 C24.34 -9.36, 121.71 -46.81, 146.05 -56.17" stroke="#1e1e1e" stroke-width="1" fill="none"></path></g><g transform="translate(104 140.56864111951518) rotate(0 73.02586196711036 -28.084923230998584)"><path d="M123.42 -36.47 C129.43 -41.71, 135.45 -46.94, 146.05 -56.17 M123.42 -36.47 C131.08 -43.14, 138.74 -49.81, 146.05 -56.17" stroke="#1e1e1e" stroke-width="1" fill="none"></path></g><g transform="translate(104 140.56864111951518) rotate(0 73.02586196711036 -28.084923230998584)"><path d="M116.06 -55.63 C124.02 -55.77, 131.99 -55.92, 146.05 -56.17 M116.06 -55.63 C126.21 -55.81, 136.37 -55.99, 146.05 -56.17" stroke="#1e1e1e" stroke-width="1" fill="none"></path></g></g><mask></mask></svg>